PathFileType	4	(X/Y/Z)	D:\TRACE\spotREDO_2-26-24\spot_baseline_1-platform.trc
DataRate	CameraRate	NumFrames	NumMarkers	Units	OrigDataRate	OrigDataStartFrame	OrigNumFrames
100.00	100.00	      31	5	mm	100.00	2626	      7000
Frame#	Time	Left_Front			Right_Front			Left_Aft			Right_Aft			Post			
		X1	Y1	Z1	X2	Y2	Z2	X3	Y3	Z3	X4	Y4	Z4	X5	Y5	Z5	

2626	26.250	-696.90466	-3.90417	-575.67572	718.06653	5.14960	-490.94547	-768.16107	4.81593	643.60687	801.24628	11.53684	647.82050	4.48322	741.34955	-982.85071	
2627	26.260	-696.86127	-3.95154	-575.68115	718.04333	5.08041	-490.91479	-768.12445	4.90849	643.61383	801.36829	11.44592	647.78656	4.42634	741.27887	-982.84180	
2628	26.270	-696.86774	-3.95045	-575.68793	718.04681	5.02268	-490.96857	-768.06079	4.89390	643.62878	801.28473	11.43411	647.78845	4.41700	741.35962	-982.84113	
2629	26.280	-696.87885	-3.86688	-575.68256	718.14447	5.06375	-490.99234	-768.11182	4.75861	643.55945	801.33429	11.03348	647.46356	4.47497	741.36542	-982.83929	
2630	26.290	-696.89862	-3.86865	-575.70685	718.26575	4.91463	-490.78131	-768.15314	4.68515	643.56952	801.31042	10.95786	647.48090	4.50899	741.28839	-983.00873	
2631	26.300	-696.99756	-3.84145	-575.66278	718.10175	5.14752	-491.02423	-768.16144	4.84803	643.59351	801.25562	10.89810	647.42456	4.57389	741.28815	-982.99713	
2632	26.310	-696.98346	-3.89302	-575.64948	718.06537	5.16530	-490.95837	-768.12048	4.82500	643.59290	801.32928	11.44043	647.82489	4.48959	741.34009	-983.05176	
2633	26.320	-696.98468	-3.87138	-575.67230	718.09570	5.16335	-490.97488	-768.04694	4.92592	643.66052	801.19458	11.35392	647.80988	4.46437	741.39313	-983.05463	
2634	26.330	-696.96857	-3.83957	-575.66425	718.10620	5.12442	-490.98560	-768.13635	4.80405	643.59253	801.33276	11.00675	647.44971	4.56703	741.34760	-983.03735	
2635	26.340	-696.95538	-3.85334	-575.65790	718.08051	5.18827	-490.95065	-768.10303	4.72452	643.56024	801.32971	11.03274	647.47760	4.57934	741.33093	-982.99469	
2636	26.350	-696.96362	-3.89955	-575.66931	718.25159	4.94484	-490.79297	-768.13043	4.77424	643.55450	801.25183	10.94550	647.47937	4.49916	741.32898	-982.89307	
2637	26.360	-696.93414	-3.87902	-575.63855	718.09607	5.05289	-490.94357	-768.11267	4.79320	643.58630	801.34070	10.99718	647.48376	4.42053	741.38806	-982.78888	
2638	26.370	-696.95691	-3.92435	-575.66589	718.07916	5.03322	-490.92236	-768.07751	4.84484	643.59564	801.33673	11.22069	647.58087	4.39840	741.41547	-982.73651	
2639	26.380	-696.98383	-3.91704	-575.67035	718.08722	5.11653	-491.00085	-768.13922	4.80147	643.55255	801.32861	11.44318	647.82965	4.41110	741.33905	-982.76062	
2640	26.390	-696.92596	-3.96100	-575.68555	718.24414	4.89441	-490.77515	-768.16309	4.80649	643.54431	801.31317	11.08356	647.47650	4.43196	741.34290	-982.82520	
2641	26.400	-696.97601	-3.92814	-575.65686	718.07587	5.09938	-491.00134	-768.11011	4.83466	643.57672	801.26208	11.02942	647.44836	4.45444	741.34344	-982.89886	
2642	26.410	-697.00208	-3.90658	-575.63519	718.26312	4.94163	-490.75464	-768.07086	4.84256	643.60461	801.28888	11.04776	647.45471	4.52264	741.33521	-982.99902	
2643	26.420	-696.93695	-3.90561	-575.64807	718.10596	5.16170	-490.97342	-768.11127	4.81815	643.59241	801.36517	11.12343	647.50232	4.49903	741.35388	-983.02960	
2644	26.430	-696.95984	-3.84536	-575.63208	718.13470	5.14785	-490.96835	-768.09131	4.81071	643.58954	801.35016	11.08361	647.53528	4.50141	741.36938	-983.06122	
2645	26.440	-696.95349	-3.86606	-575.68988	718.25879	4.94722	-490.78101	-768.07800	4.79182	643.60913	801.30273	10.85298	647.44324	4.51622	741.34924	-983.07410	
2646	26.450	-696.97723	-3.83853	-575.65808	718.17365	4.91493	-490.80515	-768.12408	4.79853	643.59363	801.29034	10.97005	647.42981	4.48719	741.35315	-983.02063	
2647	26.460	-696.94940	-3.87009	-575.66937	718.09326	5.08750	-490.98370	-768.08075	4.80828	643.57727	801.27368	11.08142	647.44281	4.42229	741.36139	-982.90637	
2648	26.470	-696.88824	-3.90392	-575.66718	718.10107	5.10637	-490.99832	-768.09229	4.80764	643.58405	801.39917	11.10070	647.45990	4.42702	741.37030	-982.83337	
2649	26.480	-696.92877	-3.88057	-575.66565	718.23163	4.86395	-490.79196	-768.07312	4.81032	643.59351	801.37708	11.18251	647.53131	4.41060	741.36560	-982.78406	
2650	26.490	-696.87201	-3.91873	-575.68903	718.26550	4.86813	-490.79620	-768.12738	4.79769	643.55487	801.34552	11.07424	647.44873	4.43804	741.33820	-982.80444	
2651	26.500	-696.86804	-3.91370	-575.68701	718.21436	4.85794	-490.78860	-768.13843	4.80410	643.55402	801.29816	11.04558	647.48730	4.43480	741.35529	-982.81439	
2652	26.510	-696.84576	-3.90010	-575.69647	718.26080	4.87445	-490.79028	-768.12018	4.81866	643.57959	801.26251	11.00104	647.41882	4.45605	741.38251	-982.90308	
2653	26.520	-696.86456	-3.88568	-575.67975	718.10297	5.11512	-490.93512	-768.15125	4.81688	643.58789	801.38495	11.04931	647.54883	4.49945	741.35272	-983.00800	
2654	26.530	-696.86414	-3.88386	-575.68127	718.24426	4.96766	-490.76434	-768.11896	4.82622	643.60645	801.25769	11.06859	647.51721	4.51515	741.36011	-983.03296	
2655	26.540	-696.85535	-3.91247	-575.70752	718.11987	5.15277	-490.94925	-768.11078	4.79765	643.57465	801.35614	10.98739	647.49072	4.54878	741.35437	-983.04077	
2656	26.550	-696.89240	-3.87297	-575.68927	718.19409	4.95589	-490.78036	-768.09845	4.83519	643.58301	801.27710	10.96267	647.44800	4.52573	741.36243	-982.99323	
